<?xml version="1.0" ?><svg id="Layer_1" style="enable-background:new 0 0 128 128;" version="1.1" viewBox="0 0 128 128" xml:space="preserve" xmlns="http://www.w3.org/2000/svg" xmlns:xlink="http://www.w3.org/1999/xlink"><style type="text/css">
	.st0{fill-rule:evenodd;clip-rule:evenodd;}
	.st1{fill-rule:evenodd;clip-rule:evenodd;fill:#333333;}
</style><g id="XMLID_8_"><path class="st0" d="M4,26.5h16.9l0-16.5c0-5.5,4.5-10,10-10c5.5,0,10,4.5,10,10v16.5h46.2l0-16.5   c0-5.5,4.5-10,10-10c5.5,0,10,4.5,10,10v16.5H124c2.2,0,4,1.8,4,4v34.2v4V124c0,2.2-1.8,4-4,4H4c-2.2,0-4-1.8-4-4V68.7h0v-4h0V30.5   C0,28.3,1.8,26.5,4,26.5L4,26.5z M87.1,30.5H40.9v1.9c0,5.5-4.5,10-10,10c-5.5,0-10-4.5-10-10v-1.9H4v34.2h120V30.5h-16.9v1.9   c0,5.5-4.5,10-10,10c-5.5,0-10-4.5-10-10V30.5L87.1,30.5z M97.1,4c-3.3,0-6,2.7-6,6l0,22.4c0,3.3,2.7,6,6,6s6-2.7,6-6V10   C103.1,6.7,100.4,4,97.1,4L97.1,4z M30.9,4c-3.3,0-6,2.7-6,6l0,22.4c0,3.3,2.7,6,6,6c3.3,0,6-2.7,6-6V10C36.9,6.7,34.2,4,30.9,4   L30.9,4z M124,68.7H4V124h120V68.7z" id="XMLID_10_"/><path class="st1" d="M87.1,30.5H40.9v1.9c0,5.5-4.5,10-10,10c-5.5,0-10-4.5-10-10v-1.9H4v34.2h120V30.5h-16.9v1.9   c0,5.5-4.5,10-10,10c-5.5,0-10-4.5-10-10V30.5z" id="XMLID_2_"/></g></svg>